<mxfile host="Electron" modified="2024-04-19T05:33:44.823Z" agent="Mozilla/5.0 (Macintosh; Intel Mac OS X 10_15_7) AppleWebKit/537.36 (KHTML, like Gecko) draw.io/22.1.11 Chrome/114.0.5735.289 Electron/25.9.8 Safari/537.36" etag="e-grZOxgingNfdGsUOlf" version="22.1.11" type="device">
  <diagram name="第 1 页" id="p7bQeRv1INaYafwBDi85">
    <mxGraphModel dx="954" dy="589" grid="1" gridSize="10" guides="1" tooltips="1" connect="1" arrows="1" fold="1" page="1" pageScale="1" pageWidth="827" pageHeight="1169" math="0" shadow="0">
      <root>
        <mxCell id="0" />
        <mxCell id="1" parent="0" />
        <mxCell id="e8Vc2KkmIMfCcctIRz5e-3" value="" style="edgeStyle=orthogonalEdgeStyle;rounded=0;orthogonalLoop=1;jettySize=auto;html=1;entryX=0;entryY=0.5;entryDx=0;entryDy=0;" edge="1" parent="1" source="e8Vc2KkmIMfCcctIRz5e-1" target="e8Vc2KkmIMfCcctIRz5e-2">
          <mxGeometry relative="1" as="geometry" />
        </mxCell>
        <mxCell id="e8Vc2KkmIMfCcctIRz5e-5" style="edgeStyle=orthogonalEdgeStyle;rounded=0;orthogonalLoop=1;jettySize=auto;html=1;entryX=0;entryY=0.5;entryDx=0;entryDy=0;" edge="1" parent="1" source="e8Vc2KkmIMfCcctIRz5e-1" target="e8Vc2KkmIMfCcctIRz5e-4">
          <mxGeometry relative="1" as="geometry" />
        </mxCell>
        <mxCell id="e8Vc2KkmIMfCcctIRz5e-1" value="数据整理" style="rounded=0;whiteSpace=wrap;html=1;" vertex="1" parent="1">
          <mxGeometry x="80" y="250" width="120" height="60" as="geometry" />
        </mxCell>
        <mxCell id="e8Vc2KkmIMfCcctIRz5e-7" value="" style="edgeStyle=orthogonalEdgeStyle;rounded=0;orthogonalLoop=1;jettySize=auto;html=1;" edge="1" parent="1" source="e8Vc2KkmIMfCcctIRz5e-2" target="e8Vc2KkmIMfCcctIRz5e-6">
          <mxGeometry relative="1" as="geometry" />
        </mxCell>
        <mxCell id="e8Vc2KkmIMfCcctIRz5e-21" style="edgeStyle=orthogonalEdgeStyle;rounded=0;orthogonalLoop=1;jettySize=auto;html=1;entryX=0;entryY=0.5;entryDx=0;entryDy=0;" edge="1" parent="1" source="e8Vc2KkmIMfCcctIRz5e-2" target="e8Vc2KkmIMfCcctIRz5e-8">
          <mxGeometry relative="1" as="geometry" />
        </mxCell>
        <mxCell id="e8Vc2KkmIMfCcctIRz5e-2" value="1.分组(类)变量" style="rounded=0;whiteSpace=wrap;html=1;" vertex="1" parent="1">
          <mxGeometry x="280" y="140" width="120" height="60" as="geometry" />
        </mxCell>
        <mxCell id="e8Vc2KkmIMfCcctIRz5e-22" style="edgeStyle=orthogonalEdgeStyle;rounded=0;orthogonalLoop=1;jettySize=auto;html=1;" edge="1" parent="1" source="e8Vc2KkmIMfCcctIRz5e-4" target="e8Vc2KkmIMfCcctIRz5e-9">
          <mxGeometry relative="1" as="geometry" />
        </mxCell>
        <mxCell id="e8Vc2KkmIMfCcctIRz5e-23" style="edgeStyle=orthogonalEdgeStyle;rounded=0;orthogonalLoop=1;jettySize=auto;html=1;" edge="1" parent="1" source="e8Vc2KkmIMfCcctIRz5e-4" target="e8Vc2KkmIMfCcctIRz5e-10">
          <mxGeometry relative="1" as="geometry" />
        </mxCell>
        <mxCell id="e8Vc2KkmIMfCcctIRz5e-4" value="2.定距变量" style="rounded=0;whiteSpace=wrap;html=1;" vertex="1" parent="1">
          <mxGeometry x="280" y="360" width="120" height="60" as="geometry" />
        </mxCell>
        <mxCell id="e8Vc2KkmIMfCcctIRz5e-20" style="edgeStyle=orthogonalEdgeStyle;rounded=0;orthogonalLoop=1;jettySize=auto;html=1;entryX=0;entryY=0.5;entryDx=0;entryDy=0;" edge="1" parent="1" source="e8Vc2KkmIMfCcctIRz5e-6" target="e8Vc2KkmIMfCcctIRz5e-11">
          <mxGeometry relative="1" as="geometry" />
        </mxCell>
        <mxCell id="e8Vc2KkmIMfCcctIRz5e-6" value="1.品质标志" style="rounded=0;whiteSpace=wrap;html=1;" vertex="1" parent="1">
          <mxGeometry x="480" y="80" width="120" height="60" as="geometry" />
        </mxCell>
        <mxCell id="e8Vc2KkmIMfCcctIRz5e-16" style="edgeStyle=orthogonalEdgeStyle;rounded=0;orthogonalLoop=1;jettySize=auto;html=1;entryX=0;entryY=0.5;entryDx=0;entryDy=0;" edge="1" parent="1" source="e8Vc2KkmIMfCcctIRz5e-8" target="e8Vc2KkmIMfCcctIRz5e-12">
          <mxGeometry relative="1" as="geometry" />
        </mxCell>
        <mxCell id="e8Vc2KkmIMfCcctIRz5e-17" style="edgeStyle=orthogonalEdgeStyle;rounded=0;orthogonalLoop=1;jettySize=auto;html=1;entryX=0;entryY=0.5;entryDx=0;entryDy=0;" edge="1" parent="1" source="e8Vc2KkmIMfCcctIRz5e-8" target="e8Vc2KkmIMfCcctIRz5e-13">
          <mxGeometry relative="1" as="geometry" />
        </mxCell>
        <mxCell id="e8Vc2KkmIMfCcctIRz5e-8" value="2.分组(类)变量" style="rounded=0;whiteSpace=wrap;html=1;" vertex="1" parent="1">
          <mxGeometry x="480" y="200" width="120" height="60" as="geometry" />
        </mxCell>
        <mxCell id="e8Vc2KkmIMfCcctIRz5e-18" style="edgeStyle=orthogonalEdgeStyle;rounded=0;orthogonalLoop=1;jettySize=auto;html=1;" edge="1" parent="1" source="e8Vc2KkmIMfCcctIRz5e-9" target="e8Vc2KkmIMfCcctIRz5e-14">
          <mxGeometry relative="1" as="geometry" />
        </mxCell>
        <mxCell id="e8Vc2KkmIMfCcctIRz5e-9" value="1.数量标志" style="rounded=0;whiteSpace=wrap;html=1;" vertex="1" parent="1">
          <mxGeometry x="480" y="320" width="120" height="60" as="geometry" />
        </mxCell>
        <mxCell id="e8Vc2KkmIMfCcctIRz5e-19" style="edgeStyle=orthogonalEdgeStyle;rounded=0;orthogonalLoop=1;jettySize=auto;html=1;" edge="1" parent="1" source="e8Vc2KkmIMfCcctIRz5e-10" target="e8Vc2KkmIMfCcctIRz5e-15">
          <mxGeometry relative="1" as="geometry" />
        </mxCell>
        <mxCell id="e8Vc2KkmIMfCcctIRz5e-10" value="2.定距变量" style="rounded=0;whiteSpace=wrap;html=1;" vertex="1" parent="1">
          <mxGeometry x="480" y="400" width="120" height="60" as="geometry" />
        </mxCell>
        <mxCell id="e8Vc2KkmIMfCcctIRz5e-11" value="性质或属性特征" style="rounded=0;whiteSpace=wrap;html=1;" vertex="1" parent="1">
          <mxGeometry x="680" y="80" width="120" height="60" as="geometry" />
        </mxCell>
        <mxCell id="e8Vc2KkmIMfCcctIRz5e-12" value="名义变量：性别，省份，季节" style="rounded=0;whiteSpace=wrap;html=1;" vertex="1" parent="1">
          <mxGeometry x="680" y="160" width="120" height="60" as="geometry" />
        </mxCell>
        <mxCell id="e8Vc2KkmIMfCcctIRz5e-13" value="顺序变量：工种，产品等级，工厂规模" style="rounded=0;whiteSpace=wrap;html=1;" vertex="1" parent="1">
          <mxGeometry x="680" y="240" width="120" height="60" as="geometry" />
        </mxCell>
        <mxCell id="e8Vc2KkmIMfCcctIRz5e-14" value="数量特征" style="rounded=0;whiteSpace=wrap;html=1;" vertex="1" parent="1">
          <mxGeometry x="680" y="320" width="120" height="60" as="geometry" />
        </mxCell>
        <mxCell id="e8Vc2KkmIMfCcctIRz5e-15" value="身高，体重，销量，工资" style="rounded=0;whiteSpace=wrap;html=1;" vertex="1" parent="1">
          <mxGeometry x="680" y="400" width="120" height="60" as="geometry" />
        </mxCell>
      </root>
    </mxGraphModel>
  </diagram>
</mxfile>
